<?xml version="1.0" standalone="no"?>
<!DOCTYPE svg PUBLIC "-//W3C//DTD SVG 1.1//EN" "http://www.w3.org/Graphics/SVG/1.1/DTD/svg11.dtd">
<svg xmlns="http://www.w3.org/2000/svg" id="Lager_1" data-name="Lager 1" version="1.1" viewBox="0 0 320 132" width="320" height="132">
  <defs>
    <style>
      .cls-1 {
        fill: none;
      }

      .cls-1, .cls-2, .cls-3 {
        stroke-width: 0px;
      }

      .cls-2 {
        opacity: .75;
      }

      .cls-2, .cls-3 {
        fill: #fff;
      }
    </style>
  </defs>
  <rect class="cls-1" x="-1.57" width="320" height="132"/>
  <rect class="cls-1" width="320" height="132"/>
  <g>
    <path class="cls-3" d="M116.1,67.3c0-2.6.5-4.9,1.4-7s2.2-3.9,3.7-5.4c1.6-1.5,3.4-2.6,5.6-3.4,2.1-.8,4.4-1.2,6.9-1.2s4.9.4,7.1,1.2c2.2.8,4.1,1.9,5.6,3.3l-6.7,8c-.6-.8-1.4-1.4-2.3-1.8s-1.9-.6-3.1-.6c-.9,0-1.8.2-2.6.5s-1.5.8-2.1,1.4-1.1,1.3-1.4,2.2c-.3.9-.5,1.8-.5,2.9s.2,2,.5,2.8.8,1.6,1.4,2.2,1.3,1.1,2.1,1.4,1.6.5,2.5.5c1.2,0,2.3-.3,3.2-.8s1.6-1.1,2.1-1.8l6.7,8c-1.5,1.5-3.2,2.6-5.4,3.5-2.1.9-4.6,1.3-7.2,1.3-2.4,0-4.7-.4-6.9-1.2s-4-2-5.6-3.5-2.8-3.3-3.7-5.4c-.8-2.2-1.3-4.6-1.3-7.1h0Z"/>
    <path class="cls-3" d="M172.4,71.3c0,2.1-.4,3.9-1.1,5.5-.8,1.6-1.8,3-3,4.1-1.2,1.1-2.7,1.9-4.4,2.5s-3.4.9-5.2.9-3.5-.3-5.2-.9-3.1-1.4-4.4-2.5-2.2-2.5-3-4.1-1.1-3.4-1.1-5.5.4-3.8,1.1-5.4c.7-1.6,1.7-2.9,3-4,1.2-1.1,2.7-1.9,4.4-2.5s3.4-.8,5.2-.8,3.6.3,5.2.8,3.1,1.4,4.4,2.5c1.3,1.1,2.3,2.4,3,4,.8,1.6,1.1,3.4,1.1,5.4ZM158.7,67.4c-1.2,0-2.1.4-2.8,1.2-.7.8-1.1,1.7-1.1,2.8s.4,2.1,1.1,2.9c.7.8,1.7,1.2,2.8,1.2s2.1-.4,2.8-1.2c.7-.8,1.1-1.8,1.1-2.9s-.4-2-1.1-2.8-1.6-1.2-2.8-1.2h0Z"/>
    <path class="cls-3" d="M173.5,59.4h10.3v2.7h.1c.6-.9,1.5-1.7,2.7-2.3,1.2-.7,2.6-1,4.1-1,1.7,0,3.1.3,4.2.9s2,1.4,2.6,2.3c.6.9,1.1,2,1.4,3.2.3,1.2.4,2.4.4,3.6v14.6h-10.5v-12.7c0-1.2-.2-2.1-.6-2.6-.4-.5-.9-.7-1.7-.7-.7,0-1.3.3-1.7.8s-.7,1.4-.7,2.4v12.8h-10.5l-.1-24h0Z"/>
    <path class="cls-3" d="M219.1,55.8c-.4-.1-.7-.1-1.1-.1-1,0-1.8.3-2.2,1s-.6,1.4-.6,2.4v.3h5.1v7.5h-5.1v16.5h-10.5v-16.4h-4.1v-7.5h4.1v-.5c0-1.5.2-2.9.5-4.3s.9-2.6,1.8-3.6c.9-1,2-1.9,3.5-2.5,1.4-.6,3.3-.9,5.5-.9.7,0,1.5,0,2.4.2.9.1,1.7.3,2.4.5l-.7,7.9c-.3-.3-.6-.4-1-.5h0Z"/>
    <path class="cls-3" d="M246.6,71.6v1.2c0,.4,0,.8-.1,1h-16.1c0,.4.2.8.4,1.1.3.3.6.6,1,.9.4.2.8.4,1.3.6s.9.2,1.4.2c1,0,1.8-.2,2.4-.5.6-.3,1.1-.7,1.5-1.2l7.5,3.8c-1.1,1.7-2.6,3.1-4.6,4.1s-4.4,1.5-7.1,1.5c-1.7,0-3.4-.3-5.1-.8s-3.1-1.4-4.4-2.4c-1.3-1.1-2.3-2.4-3-4-.8-1.6-1.1-3.5-1.1-5.6s.4-3.8,1.1-5.4,1.6-3,2.9-4.1c1.2-1.1,2.6-2,4.2-2.6,1.6-.6,3.4-.9,5.2-.9s3.6.3,5.1,1c1.6.7,2.9,1.6,4,2.7,1.1,1.2,2,2.6,2.6,4.2.6,1.6.8,3.4.9,5.2h0ZM237.5,68.2c0-.8-.3-1.6-.9-2.1-.6-.6-1.5-.8-2.5-.8-1.2,0-2.1.3-2.7,1s-1,1.3-1.1,2l7.2-.1h0Z"/>
    <path class="cls-3" d="M262.4,84.3c-2,0-3.9-.3-5.6-.9-1.7-.6-3.2-1.5-4.4-2.6s-2.2-2.5-2.9-4.1c-.7-1.6-1.1-3.4-1.1-5.3s.4-3.7,1.1-5.3c.7-1.6,1.7-3,3-4.1,1.3-1.1,2.8-2,4.5-2.6,1.7-.6,3.6-.9,5.6-.9.8,0,1.6.1,2.5.2s1.6.3,2.4.6,1.5.5,2.1.8,1.2.6,1.7,1l-5.2,7.6c-.4-.4-.8-.7-1.4-.9s-1.2-.3-1.7-.3-1,.1-1.5.2c-.5.2-.9.4-1.3.8-.4.3-.7.8-.9,1.3s-.4,1.1-.4,1.8.1,1.2.4,1.8c.2.5.5.9.9,1.2s.8.6,1.3.7c.5.2,1,.2,1.5.2.6,0,1.2-.1,1.8-.3.6-.2,1-.5,1.4-.9l5.3,7.4c-1,.8-2.3,1.4-3.9,2-1.7.4-3.4.6-5.2.6h0Z"/>
    <path class="cls-3" d="M282.9,84.1c-3.2,0-5.6-.7-7.2-2.1-1.5-1.4-2.3-3.5-2.3-6.4v-8.6h-3.4v-7.5h3.3v-5.4h10.2v5.4h5.2v7.5h-5.2v6.4c0,1.2.2,1.9.8,2.3.5.4,1.2.6,2.1.6.3,0,.7,0,1-.1.4-.1.6-.1.9-.2v7.2c-.5.2-1.3.4-2.3.6-.9.2-2,.3-3.1.3h0Z"/>
  </g>
  <g>
    <rect class="cls-2" x="48.83" y="23.5" width="22.03" height="83.03" rx="2.16" ry="2.16"/>
    <rect class="cls-2" x="48.83" y="23.5" width="22.03" height="83.03" rx="2.16" ry="2.16" transform="translate(124.86 5.17) rotate(90)"/>
    <rect class="cls-2" x="48.83" y="23.5" width="22.03" height="83.03" rx="2.16" ry="2.16" transform="translate(63.5 -23.28) rotate(45)"/>
    <rect class="cls-2" x="48.83" y="23.5" width="22.03" height="83.03" rx="2.16" ry="2.16" transform="translate(148.14 68.67) rotate(135)"/>
  </g>
</svg>